<svg xmlns="http://www.w3.org/2000/svg" viewBox="0 0 64 64" width="64" height="64">
  <defs>
    <linearGradient id="bg" x1="0%" y1="0%" x2="100%" y2="100%">
      <stop offset="0%" style="stop-color:#667eea;stop-opacity:1" />
      <stop offset="100%" style="stop-color:#764ba2;stop-opacity:1" />
    </linearGradient>
    <linearGradient id="icon" x1="0%" y1="0%" x2="100%" y2="100%">
      <stop offset="0%" style="stop-color:#ffffff;stop-opacity:1" />
      <stop offset="100%" style="stop-color:#f0f0f0;stop-opacity:1" />
    </linearGradient>
  </defs>
  
  <!-- Background circle -->
  <circle cx="32" cy="32" r="30" fill="url(#bg)" stroke="#4a5568" stroke-width="2"/>
  
  <!-- AI brain/circuit pattern -->
  <g fill="url(#icon)" opacity="0.9">
    <!-- Main image frame -->
    <rect x="16" y="20" width="32" height="24" rx="2" fill="none" stroke="url(#icon)" stroke-width="2"/>
    
    <!-- Mountain/landscape icon inside frame -->
    <path d="M20 38 L26 30 L30 34 L36 26 L44 38 Z" fill="url(#icon)" opacity="0.7"/>
    
    <!-- Sun/light source -->
    <circle cx="38" cy="28" r="3" fill="url(#icon)" opacity="0.8"/>
    
    <!-- AI nodes/connections -->
    <circle cx="20" cy="16" r="1.5" fill="url(#icon)"/>
    <circle cx="32" cy="12" r="1.5" fill="url(#icon)"/>
    <circle cx="44" cy="16" r="1.5" fill="url(#icon)"/>
    <circle cx="16" cy="48" r="1.5" fill="url(#icon)"/>
    <circle cx="32" cy="52" r="1.5" fill="url(#icon)"/>
    <circle cx="48" cy="48" r="1.5" fill="url(#icon)"/>
    
    <!-- Connection lines -->
    <path d="M20 16 L32 12 L44 16" fill="none" stroke="url(#icon)" stroke-width="1" opacity="0.6"/>
    <path d="M16 48 L32 52 L48 48" fill="none" stroke="url(#icon)" stroke-width="1" opacity="0.6"/>
    <path d="M20 16 L16 20" fill="none" stroke="url(#icon)" stroke-width="1" opacity="0.6"/>
    <path d="M44 16 L48 20" fill="none" stroke="url(#icon)" stroke-width="1" opacity="0.6"/>
    <path d="M16 44 L16 48" fill="none" stroke="url(#icon)" stroke-width="1" opacity="0.6"/>
    <path d="M48 44 L48 48" fill="none" stroke="url(#icon)" stroke-width="1" opacity="0.6"/>
  </g>
</svg>