<svg xmlns="http://www.w3.org/2000/svg" viewBox="0 0 32 32" width="32" height="32">
  <defs>
    <linearGradient id="bg32" x1="0%" y1="0%" x2="100%" y2="100%">
      <stop offset="0%" style="stop-color:#667eea;stop-opacity:1" />
      <stop offset="100%" style="stop-color:#764ba2;stop-opacity:1" />
    </linearGradient>
    <linearGradient id="icon32" x1="0%" y1="0%" x2="100%" y2="100%">
      <stop offset="0%" style="stop-color:#ffffff;stop-opacity:1" />
      <stop offset="100%" style="stop-color:#f0f0f0;stop-opacity:1" />
    </linearGradient>
  </defs>
  
  <!-- Background circle -->
  <circle cx="16" cy="16" r="15" fill="url(#bg32)" stroke="#4a5568" stroke-width="1"/>
  
  <!-- AI brain/circuit pattern -->
  <g fill="url(#icon32)" opacity="0.9">
    <!-- Main image frame -->
    <rect x="8" y="10" width="16" height="12" rx="1" fill="none" stroke="url(#icon32)" stroke-width="1"/>
    
    <!-- Mountain/landscape icon inside frame -->
    <path d="M10 19 L13 15 L15 17 L18 13 L22 19 Z" fill="url(#icon32)" opacity="0.7"/>
    
    <!-- Sun/light source -->
    <circle cx="19" cy="14" r="1.5" fill="url(#icon32)" opacity="0.8"/>
    
    <!-- AI nodes/connections -->
    <circle cx="10" cy="8" r="0.8" fill="url(#icon32)"/>
    <circle cx="16" cy="6" r="0.8" fill="url(#icon32)"/>
    <circle cx="22" cy="8" r="0.8" fill="url(#icon32)"/>
    <circle cx="8" cy="24" r="0.8" fill="url(#icon32)"/>
    <circle cx="16" cy="26" r="0.8" fill="url(#icon32)"/>
    <circle cx="24" cy="24" r="0.8" fill="url(#icon32)"/>
    
    <!-- Connection lines -->
    <path d="M10 8 L16 6 L22 8" fill="none" stroke="url(#icon32)" stroke-width="0.5" opacity="0.6"/>
    <path d="M8 24 L16 26 L24 24" fill="none" stroke="url(#icon32)" stroke-width="0.5" opacity="0.6"/>
  </g>
</svg>